<svg xmlns="http://www.w3.org/2000/svg" viewBox="0 0 58.29 76.33"><defs><style>.cls-1{fill:#f5ba18;}</style></defs><title>t-accent</title><g id="Layer_2" data-name="Layer 2"><g id="Layer_1-2" data-name="Layer 1"><polygon class="cls-1" points="0 18.65 2.73 16.36 2.73 8.36 0 10.65 0 18.65"/><polygon class="cls-1" points="48.37 26.75 45.77 28.97 37.29 27.06 37.29 24.25 48.37 26.75"/><polygon class="cls-1" points="58.29 18.28 55.69 20.5 37.29 16.35 37.29 13.54 58.29 18.28"/><polygon class="cls-1" points="53.32 22.52 50.73 24.73 37.29 21.7 37.29 18.9 53.32 22.52"/><polygon class="cls-1" points="4.98 14.41 5.04 14.42 7.71 12.19 7.71 4.18 4.98 6.47 4.98 14.41"/><polygon class="cls-1" points="9.96 10.19 10.06 10.21 12.7 8 12.7 0 9.96 2.3 9.96 10.19"/><polygon class="cls-1" points="26.1 16.38 23.85 15.87 21.12 15.26 12.7 13.36 9.96 12.74 7.71 12.23 7.71 12.19 5.04 14.42 7.71 15.03 9.96 15.54 12.7 16.15 21.12 18.05 23.85 18.67 26.1 19.18 26.1 72.09 28.83 69.77 28.83 17 26.1 16.38"/><polygon class="cls-1" points="33.82 12.76 31.09 12.15 28.83 11.64 26.1 11.02 23.85 10.51 21.12 9.9 12.7 8 10.06 10.21 12.7 10.8 21.12 12.7 23.85 13.32 26.1 13.83 28.83 14.44 31.09 14.95 31.09 67.85 33.82 65.53 33.82 12.76"/><polygon class="cls-1" points="21.12 20.61 12.7 18.71 9.96 18.09 7.71 17.58 4.98 16.97 2.73 16.46 2.73 16.36 0 18.65 2.73 19.26 4.98 19.77 7.71 20.39 9.96 20.9 12.7 21.51 21.12 23.41 21.12 76.33 23.85 74.01 23.85 21.22 21.12 20.61"/></g></g></svg>