<svg xmlns="http://www.w3.org/2000/svg" viewBox="0 0 272.75 76.33"><defs><style>.cls-1{fill:#58bc9f;}.cls-2{fill:#171617;}</style></defs><title>t-txt-tb</title><g id="Layer_2" data-name="Layer 2"><g id="Layer_1-2" data-name="Layer 1"><polygon class="cls-1" points="0 18.65 2.73 16.36 2.73 8.36 0 10.65 0 18.65"/><polygon class="cls-1" points="48.37 26.75 45.77 28.97 37.29 27.06 37.29 24.25 48.37 26.75"/><polygon class="cls-1" points="58.29 18.28 55.69 20.5 37.29 16.35 37.29 13.54 58.29 18.28"/><polygon class="cls-1" points="53.32 22.52 50.73 24.73 37.29 21.7 37.29 18.9 53.32 22.52"/><polygon class="cls-1" points="4.98 14.41 5.04 14.42 7.71 12.19 7.71 4.18 4.98 6.47 4.98 14.41"/><polygon class="cls-1" points="9.96 10.19 10.06 10.21 12.7 8 12.7 0 9.96 2.3 9.96 10.19"/><polygon class="cls-1" points="26.1 16.38 23.85 15.87 21.12 15.26 12.7 13.36 9.96 12.74 7.71 12.23 7.71 12.19 5.04 14.42 7.71 15.03 9.96 15.54 12.7 16.15 21.12 18.05 23.85 18.67 26.1 19.18 26.1 72.09 28.83 69.77 28.83 17 26.1 16.38"/><polygon class="cls-1" points="33.82 12.76 31.09 12.15 28.83 11.64 26.1 11.02 23.85 10.51 21.12 9.9 12.7 8 10.06 10.21 12.7 10.8 21.12 12.7 23.85 13.32 26.1 13.83 28.83 14.44 31.09 14.95 31.09 67.85 33.82 65.53 33.82 12.76"/><polygon class="cls-1" points="21.12 20.61 12.7 18.71 9.96 18.09 7.71 17.58 4.98 16.97 2.73 16.46 2.73 16.36 0 18.65 2.73 19.26 4.98 19.77 7.71 20.39 9.96 20.9 12.7 21.51 21.12 23.41 21.12 76.33 23.85 74.01 23.85 21.22 21.12 20.61"/><path class="cls-2" d="M103.69,28.45V32.3H94.63V59.08h-4V32.3h-9V28.45Z"/><path class="cls-2" d="M118.92,37.2h3.81V59.08h-3.81V55.93a7.77,7.77,0,0,1-7.09,3.72,8.15,8.15,0,0,1-6.17-2.43,9.16,9.16,0,0,1-2.32-6.58V37.2h3.81V50.42a5.64,5.64,0,0,0,1.44,4.13,5.34,5.34,0,0,0,4,1.47,6.18,6.18,0,0,0,4.59-1.77c1.17-1.19,1.75-3,1.75-5.45Z"/><path class="cls-2" d="M132.32,40.88c1.25-2.72,3.52-4.07,6.82-4.07v4a6.87,6.87,0,0,0-4.81,1.49q-2,1.62-2,5.2v11.6h-3.81V37.2h3.81Z"/><path class="cls-2" d="M153.76,36.63a8.13,8.13,0,0,1,6.17,2.43,9.17,9.17,0,0,1,2.32,6.59V59.08h-3.81V45.86A5.66,5.66,0,0,0,157,41.73a5.34,5.34,0,0,0-4-1.47A6.15,6.15,0,0,0,148.42,42q-1.75,1.77-1.75,5.44v11.6h-3.81V37.2h3.81v3.15A7.77,7.77,0,0,1,153.76,36.63Z"/><path class="cls-2" d="M185.66,37.2h3.81V59.08h-3.81V55.32a9.28,9.28,0,0,1-8.27,4.33,10.49,10.49,0,0,1-7.83-3.35,11.29,11.29,0,0,1-3.24-8.16A11.29,11.29,0,0,1,169.56,40a10.49,10.49,0,0,1,7.83-3.35A9.28,9.28,0,0,1,185.66,41ZM177.87,56a7.52,7.52,0,0,0,5.56-2.25,8.1,8.1,0,0,0,0-11.16,7.52,7.52,0,0,0-5.56-2.25,7.44,7.44,0,0,0-5.51,2.25,8.07,8.07,0,0,0,0,11.16A7.44,7.44,0,0,0,177.87,56Z"/><path class="cls-2" d="M207.32,36.63A10.51,10.51,0,0,1,215.16,40a11.29,11.29,0,0,1,3.24,8.16,11.29,11.29,0,0,1-3.24,8.16,10.51,10.51,0,0,1-7.84,3.35,9.29,9.29,0,0,1-8.27-4.33v3.76h-3.8V28.45h3.8V41A9.29,9.29,0,0,1,207.32,36.63ZM206.84,56a7.47,7.47,0,0,0,5.52-2.25,8.1,8.1,0,0,0,0-11.16,7.93,7.93,0,0,0-11.07,0,8.07,8.07,0,0,0,0,11.16A7.49,7.49,0,0,0,206.84,56Z"/><path class="cls-2" d="M223,59.08V27.13h3.8v32Z"/><path class="cls-2" d="M235.24,49.89a7.22,7.22,0,0,0,2.69,4.55,8.39,8.39,0,0,0,5.24,1.62,6.86,6.86,0,0,0,6.3-3.19l3.24,1.83q-3.19,4.95-9.63,4.95a11.46,11.46,0,0,1-8.47-3.26,11.18,11.18,0,0,1-3.26-8.25,11.32,11.32,0,0,1,3.19-8.23,11,11,0,0,1,8.27-3.28A10.08,10.08,0,0,1,250.67,40a11.78,11.78,0,0,1,3,8.16,11.13,11.13,0,0,1-.13,1.71Zm7.57-9.67a7.28,7.28,0,0,0-7.57,6.34h14.62a7.29,7.29,0,0,0-2.45-4.72A7,7,0,0,0,242.81,40.22Z"/><path class="cls-2" d="M260.5,43.11a2.31,2.31,0,0,0,1.26,2,11.57,11.57,0,0,0,3.07,1.23c1.19.3,2.39.65,3.59,1.05a7,7,0,0,1,3.06,2,5.28,5.28,0,0,1,1.27,3.66,5.77,5.77,0,0,1-2.3,4.77,9.3,9.3,0,0,1-5.88,1.79,10.25,10.25,0,0,1-5.47-1.4,7.77,7.77,0,0,1-3.24-3.72l3.28-1.88a4.61,4.61,0,0,0,2,2.49,6.23,6.23,0,0,0,3.46.92,6,6,0,0,0,3.1-.72,2.42,2.42,0,0,0,1.23-2.25,2.3,2.3,0,0,0-1.27-2,11.3,11.3,0,0,0-3.06-1.22c-1.2-.31-2.4-.67-3.59-1.08a7.28,7.28,0,0,1-3.07-2,5.16,5.16,0,0,1-1.27-3.59,5.83,5.83,0,0,1,2.21-4.68,8.36,8.36,0,0,1,5.54-1.84,9.34,9.34,0,0,1,4.75,1.2,7.79,7.79,0,0,1,3.13,3.35l-3.2,1.8c-.78-1.87-2.35-2.8-4.68-2.8a4.84,4.84,0,0,0-2.76.76A2.47,2.47,0,0,0,260.5,43.11Z"/></g></g></svg>